<?xml version="1.0" encoding="UTF-8"?>
<svg width="32px" height="32px" viewBox="0 0 32 32" version="1.1" xmlns="http://www.w3.org/2000/svg" xmlns:xlink="http://www.w3.org/1999/xlink">
    <title>logo/VtigerCRM</title>
    <defs>
        <linearGradient x1="3.64092205%" y1="50%" x2="78.6419423%" y2="21.1782339%" id="linearGradient-1">
            <stop stop-color="#0059AA" offset="0%"></stop>
            <stop stop-color="#00AAEC" offset="100%"></stop>
        </linearGradient>
        <linearGradient x1="78.1206361%" y1="38.7078288%" x2="-1.38777878e-15%" y2="54.6035388%" id="linearGradient-2">
            <stop stop-color="#128AE0" offset="0%"></stop>
            <stop stop-color="#004C87" offset="100%"></stop>
        </linearGradient>
        <linearGradient x1="53.3163139%" y1="39.8556997%" x2="31.7252004%" y2="62.9107847%" id="linearGradient-3">
            <stop stop-color="#007939" offset="0%"></stop>
            <stop stop-color="#BED730" offset="100%"></stop>
        </linearGradient>
        <linearGradient x1="52.9224573%" y1="33.5057741%" x2="26.9225608%" y2="72.2587298%" id="linearGradient-4">
            <stop stop-color="#006630" offset="0%"></stop>
            <stop stop-color="#A6D129" offset="100%"></stop>
        </linearGradient>
    </defs>
    <g id="logo/VtigerCRM" stroke="none" stroke-width="1" fill="none" fill-rule="evenodd">
        <g id="编组-6" transform="translate(3.000000, 6.000000)" fill-rule="nonzero" stroke-width="0.4">
            <path d="M5.41666667,4.42222222 C6.91497154,4.42222222 8.26605799,5.03702761 9.21792439,6.02244103 C10.4994142,5.46500187 11.7090787,5.12592593 13,5.12592593 C14.9397393,5.12592593 16.696064,5.89162298 17.9673094,7.13027227 C19.1786146,8.31051838 19.9493768,9.92030831 20.0173246,11.7052303 L20.0173246,11.7052303 L18.5812134,11.3442033 C18.4255725,9.99438841 17.7670678,8.79265728 16.7918655,7.92184646 C15.7929666,7.02987567 14.4618165,6.48518519 13,6.48518519 C11.9899847,6.48518519 11.0236281,6.74400655 10.1746827,7.2281022 C9.66917088,7.57662227 9.38889457,7.75375314 9.13668899,7.72269225 C8.86420181,7.68913353 8.64288602,7.42119712 8.23262271,6.99381547 C7.47252502,6.20665154 6.48161901,5.78148148 5.41666667,5.78148148 C4.36486359,5.78148148 3.41285498,6.19725523 2.72365257,6.86878578 C2.03254543,7.54217222 1.60555556,8.47257774 1.60555556,9.5 C1.60555556,10.5274223 2.03254543,11.4578278 2.72365257,12.1312142 C3.41285498,12.8027448 4.36486359,13.2185185 5.41666667,13.2185185 C6.38432418,13.0990068 6.88282361,13.0438694 7.19923737,13.1655883 C7.5024134,13.2822148 7.6062607,13.5822438 7.82409015,14.0947745 C8.26222997,15.1050126 8.99135104,15.9447596 9.89769507,16.5303375 C10.7950866,17.1101314 11.8661962,17.4407407 13,17.4407407 C14.8658221,17.4407407 16.5185924,16.5534542 17.5396284,15.1892015 L17.5396284,15.1892015 L18.8583764,15.7340498 C17.6007448,17.5822944 15.4460826,18.8 13,18.8 C11.5667867,18.8 10.2337299,18.3820326 9.12246166,17.6640687 C7.97790864,16.9246003 7.06854861,15.8669885 6.52790883,14.6204118 C6.02025033,14.5523442 5.72150839,14.5777778 5.41666667,14.5777778 C3.97551775,14.5777778 2.67058192,14.0089925 1.72607788,13.0887065 C0.783478573,12.1702764 0.2,10.9016079 0.2,9.5 C0.2,8.09839211 0.783478573,6.82972356 1.72607788,5.91129346 C2.67058192,4.99100748 3.97551775,4.42222222 5.41666667,4.42222222 Z" id="形状结合" stroke="url(#linearGradient-2)" fill="url(#linearGradient-1)"></path>
            <path d="M11.1944444,0.2 C12.6927493,0.2 14.0438358,0.814805385 14.9957022,1.8002188 C16.277192,1.24277965 17.4868565,0.903703704 18.7777778,0.903703704 C20.7175171,0.903703704 22.4738418,1.66940076 23.7450871,2.90805005 C24.9563924,4.08829616 25.7271546,5.69808608 25.7951024,7.48300811 L25.7951024,7.48300811 L24.3589912,7.12198108 C24.2033503,5.77216619 23.5448456,4.57043506 22.5696433,3.69962423 C21.5707444,2.80765344 20.2395943,2.26296296 18.7777778,2.26296296 C17.7677625,2.26296296 16.8014059,2.52178433 15.9524605,3.00587998 C15.4469487,3.35440005 15.1666723,3.53153091 14.9144668,3.50047002 C14.6419796,3.46691131 14.4206638,3.1989749 14.0104005,2.77159325 C13.2503028,1.98442931 12.2593968,1.55925926 11.1944444,1.55925926 C10.1426414,1.55925926 9.19063275,1.975033 8.50143034,2.64656356 C7.81032321,3.31995 7.38333333,4.25035552 7.38333333,5.27777778 C7.38333333,6.30520003 7.81032321,7.23560556 8.50143034,7.908992 C9.19063275,8.58052255 10.1426414,8.9962963 11.1944444,8.9962963 C12.162102,8.87678454 12.6606014,8.82164721 12.9770152,8.94336607 C13.2801912,9.0599926 13.3840385,9.36002156 13.6018679,9.8725523 C14.0400077,10.8827904 14.7691288,11.7225374 15.6754728,12.3081153 C16.5728644,12.8879091 17.643974,13.2185185 18.7777778,13.2185185 C20.6435998,13.2185185 22.2963701,12.331232 23.3174062,10.9669793 L23.3174062,10.9669793 L24.6361542,11.5118276 C23.3785226,13.3600721 21.2238603,14.5777778 18.7777778,14.5777778 C17.3445644,14.5777778 16.0115077,14.1598104 14.9002394,13.4418465 C13.7556864,12.7023781 12.8463264,11.6447663 12.3056866,10.3981896 C11.7980281,10.330122 11.4992862,10.3555556 11.1944444,10.3555556 C9.75329552,10.3555556 8.44835969,9.7867703 7.50385566,8.86648432 C6.56125635,7.94805422 5.97777778,6.67938567 5.97777778,5.27777778 C5.97777778,3.87616989 6.56125635,2.60750133 7.50385566,1.68907124 C8.44835969,0.768785256 9.75329552,0.2 11.1944444,0.2 Z" id="形状结合" stroke="url(#linearGradient-4)" fill="url(#linearGradient-3)" transform="translate(15.888889, 7.388889) scale(-1, -1) translate(-15.888889, -7.388889) "></path>
        </g>
    </g>
</svg>